<svg width="22" height="22" viewBox="0 0 22 22" fill="none" xmlns="http://www.w3.org/2000/svg">
<path d="M10.2143 0H2.35714C1.73199 0 1.13244 0.248341 0.690391 0.690391C0.248341 1.13244 0 1.73199 0 2.35714V19.6429C0 20.268 0.248341 20.8676 0.690391 21.3096C1.13244 21.7517 1.73199 22 2.35714 22H10.2143V0Z" fill="#FFB804"/>
<path d="M19.6428 0H11.7856V22H19.6428C20.2679 22 20.8675 21.7517 21.3095 21.3096C21.7516 20.8676 21.9999 20.268 21.9999 19.6429V2.35714C21.9999 1.73199 21.7516 1.13244 21.3095 0.690391C20.8675 0.248341 20.2679 0 19.6428 0Z" fill="#FFB804"/>
</svg>
