<svg width="22" height="22" viewBox="0 0 22 22" fill="none" xmlns="http://www.w3.org/2000/svg">
<path d="M7.30583 20.1666C9.33087 20.1666 10.9725 18.525 10.9725 16.4999C10.9725 14.4749 9.33087 12.8333 7.30583 12.8333C5.28078 12.8333 3.63916 14.4749 3.63916 16.4999C3.63916 18.525 5.28078 20.1666 7.30583 20.1666Z" stroke="#790EF5" stroke-width="1.5" stroke-linecap="round" stroke-linejoin="round"/>
<path d="M10.9725 16.5001V3.66675" stroke="#790EF5" stroke-width="1.5" stroke-linecap="round" stroke-linejoin="round"/>
<path d="M13.3925 1.93421L17.4441 3.28171C18.425 3.61171 19.2316 4.72087 19.2316 5.75671V6.82921C19.2316 8.23171 18.15 9.01087 16.8208 8.57087L12.7691 7.22337C11.7883 6.89337 10.9816 5.78421 10.9816 4.74837V3.66671C10.9725 2.27337 12.0633 1.48504 13.3925 1.93421Z" stroke="#790EF5" stroke-width="1.5" stroke-linecap="round" stroke-linejoin="round"/>
</svg>
