<svg width="179" height="179" viewBox="0 0 179 179" fill="none" xmlns="http://www.w3.org/2000/svg">
<g clip-path="url(#clip0_248_173)">
<path d="M123.834 50.1317L121.447 51.8529C115.642 44.2172 107.67 38.5086 98.5712 35.4718C89.4727 32.4351 79.6702 32.2113 70.4425 34.8295L90.2239 20.5685C91.3129 21.4737 92.6947 21.9507 94.1102 21.91C95.5257 21.8692 96.8778 21.3137 97.913 20.3474C98.9482 19.3811 99.5955 18.0705 99.7335 16.6611C99.8715 15.2517 99.4907 13.8404 98.6626 12.6917C97.8344 11.543 96.6157 10.7357 95.235 10.4213C93.8542 10.1068 92.4062 10.3067 91.1623 10.9835C89.9184 11.6603 88.964 12.7675 88.4781 14.0976C87.9921 15.4278 88.008 16.8895 88.5227 18.2087L60.0377 38.7444L58.3365 36.3846C58.1109 36.0717 57.7702 35.8612 57.3894 35.7995C57.0086 35.7377 56.6189 35.8298 56.3059 36.0554L49.2266 41.1591C48.9137 41.3847 48.7032 41.7254 48.6414 42.1062C48.5797 42.487 48.6717 42.8767 48.8973 43.1896L50.5986 45.5494L22.1136 66.0851C21.0246 65.1799 19.6428 64.703 18.2273 64.7437C16.8118 64.7844 15.4597 65.3399 14.4245 66.3062C13.3893 67.2725 12.742 68.5832 12.604 69.9925C12.466 71.4019 12.8468 72.8132 13.675 73.9619C14.5031 75.1106 15.7218 75.9179 17.1025 76.2323C18.4833 76.5468 19.9313 76.3469 21.1752 75.6701C22.4191 74.9933 23.3735 73.8861 23.8594 72.556C24.3454 71.2258 24.3295 69.7642 23.8148 68.4449L43.596 54.184C38.1959 62.1114 35.3105 71.4823 35.3164 81.0742C35.3223 90.6661 38.2191 100.034 43.6289 107.954L41.2418 109.675C40.9289 109.901 40.7184 110.241 40.6566 110.622C40.5949 111.003 40.6869 111.393 40.9125 111.706L46.0162 118.785C46.2418 119.098 46.5825 119.309 46.9633 119.37C47.3441 119.432 47.7338 119.34 48.0468 119.114L55.1261 114.011C55.439 113.785 55.6495 113.444 55.7113 113.064C55.773 112.683 55.681 112.293 55.4554 111.98L50.3517 104.901C50.1261 104.588 49.7854 104.377 49.4046 104.316C49.0238 104.254 48.6341 104.346 48.3211 104.571L45.989 106.253C39.9629 97.3951 37.3089 86.6718 38.5076 76.0259C39.7064 65.38 44.6787 55.5155 52.5236 48.2196L54.001 50.269C54.2266 50.5819 54.5673 50.7924 54.9481 50.8541C55.3289 50.9159 55.7186 50.8238 56.0316 50.5982L63.1109 45.4945C63.4238 45.2689 63.6343 44.9282 63.6961 44.5474C63.7578 44.1666 63.6658 43.7769 63.4402 43.464L61.9627 41.4146C71.3638 36.2773 82.2941 34.6771 92.7733 36.9041C103.253 39.131 112.588 45.0377 119.087 53.5541L116.755 55.2354C116.442 55.461 116.231 55.8017 116.17 56.1825C116.108 56.5633 116.2 56.953 116.426 57.266L121.529 64.3453C121.755 64.6582 122.096 64.8687 122.476 64.9305C122.857 64.9922 123.247 64.9002 123.56 64.6746L130.639 59.5709C130.952 59.3453 131.163 59.0046 131.224 58.6238C131.286 58.243 131.194 57.8533 130.968 57.5403L125.865 50.461C125.639 50.1481 125.298 49.9376 124.918 49.8758C124.537 49.8141 124.147 49.9061 123.834 50.1317Z" fill="#859EA4" fill-opacity="0.08"/>
<path d="M66.8588 50.956C66.5685 50.8038 66.2354 50.7542 65.9134 50.8151C65.5914 50.876 65.2994 51.0439 65.0847 51.2915C64.87 51.5391 64.7452 51.8519 64.7306 52.1793C64.7159 52.5067 64.8123 52.8294 65.004 53.0952L92.5726 91.3355C92.7373 91.5639 92.9647 91.7395 93.2273 91.8412C93.4899 91.9428 93.7763 91.966 94.0518 91.9081C95.3585 91.6233 96.7234 91.7974 97.9168 92.4011C99.1102 93.0048 100.059 94.0012 100.604 95.2226C101.149 96.4439 101.256 97.8157 100.908 99.107C100.56 100.398 99.7779 101.53 98.6931 102.312C97.6082 103.095 96.287 103.479 94.9519 103.401C93.6168 103.323 92.3492 102.788 91.3626 101.885C90.376 100.982 89.7306 99.7669 89.535 98.4439C89.3394 97.1208 89.6055 95.7708 90.2886 94.6211C90.4307 94.378 90.4991 94.0989 90.4857 93.8177C90.4722 93.5365 90.3774 93.2652 90.2128 93.0368L62.6442 54.7965C62.4526 54.5306 62.1769 54.3372 61.8616 54.2476C61.5464 54.1581 61.2101 54.1776 60.9074 54.303C60.6046 54.4285 60.3531 54.6525 60.1936 54.9387C60.034 55.225 59.9758 55.5567 60.0284 55.8802L69.9341 116.878C69.9703 117.101 70.058 117.312 70.1901 117.495C70.3221 117.679 70.495 117.829 70.695 117.933L91.6591 128.915L126.155 104.046L122.361 80.6856C122.325 80.4627 122.237 80.2513 122.105 80.0681C121.973 79.8849 121.8 79.7349 121.6 79.6301L66.8588 50.956Z" fill="#859EA4" fill-opacity="0.08"/>
<path d="M130.666 104.379L90.55 133.3C89.8984 133.77 89.751 134.679 90.2207 135.331L95.3245 142.41C95.7943 143.062 96.7033 143.209 97.355 142.74L137.471 113.818C138.123 113.349 138.27 112.44 137.801 111.788L132.697 104.709C132.227 104.057 131.318 103.91 130.666 104.379Z" fill="#859EA4" fill-opacity="0.08"/>
<path d="M107.37 151.657C107.596 151.97 107.937 152.181 108.317 152.243C108.698 152.304 109.088 152.212 109.401 151.987L142.438 128.169C142.751 127.944 142.961 127.603 143.023 127.222C143.085 126.841 142.993 126.452 142.767 126.139L136.813 117.879L101.416 143.398L107.37 151.657Z" fill="#859EA4" fill-opacity="0.08"/>
</g>
<defs>
<clipPath id="clip0_248_173">
<rect width="128" height="128" fill="white" transform="translate(0 74.8547) rotate(-35.789)"/>
</clipPath>
</defs>
</svg>
