<svg width="24" height="24" viewBox="0 0 24 24" fill="none" xmlns="http://www.w3.org/2000/svg">
<path d="M9.71429 5V6H14.2857V5C14.2857 4.44781 14.7964 4 15.4286 4C16.0607 4 16.5714 4.44781 16.5714 5V6H18.2857C19.2321 6 20 6.67156 20 7.5V9H4V7.5C4 6.67156 4.7675 6 5.71429 6H7.42857V5C7.42857 4.44781 7.93929 4 8.57143 4C9.20357 4 9.71429 4.44781 9.71429 5ZM4 10H20V18.5C20 19.3281 19.2321 20 18.2857 20H5.71429C4.7675 20 4 19.3281 4 18.5V10ZM15.1429 15.75C15.6179 15.75 16 15.4156 16 15C16 14.5844 15.6179 14.25 15.1429 14.25H8.85714C8.38214 14.25 8 14.5844 8 15C8 15.4156 8.38214 15.75 8.85714 15.75H15.1429Z" fill="#67717D"/>
</svg>
