<svg width="36" height="36" viewBox="0 0 36 36" fill="none" xmlns="http://www.w3.org/2000/svg">
<path fill-rule="evenodd" clip-rule="evenodd" d="M18 1.5C8.88731 1.5 1.5 8.88731 1.5 18C1.5 27.1126 8.8873 34.5 18 34.5C27.1126 34.5 34.5 27.1127 34.5 18C34.5 8.88731 27.1126 1.5 18 1.5ZM23.5606 14.5607C24.1464 13.9749 24.1464 13.0251 23.5606 12.4393C22.9749 11.8536 22.0251 11.8536 21.4393 12.4393L18 15.8787L14.5607 12.4394C13.9749 11.8536 13.0251 11.8536 12.4393 12.4394C11.8536 13.0251 11.8536 13.9749 12.4393 14.5607L15.8787 18L12.4393 21.4394C11.8536 22.0251 11.8536 22.9749 12.4393 23.5607C13.0251 24.1464 13.9749 24.1464 14.5607 23.5607L18 20.1213L21.4393 23.5607C22.0251 24.1464 22.9749 24.1464 23.5606 23.5607C24.1464 22.9749 24.1464 22.0251 23.5606 21.4394L20.1213 18L23.5606 14.5607Z" fill="#8471D9"/>
</svg>
