<svg width="48" height="48" viewBox="0 0 48 48" fill="none" xmlns="http://www.w3.org/2000/svg">
<circle cx="24" cy="24" r="24" fill="#F9FAFB"/>
<path d="M35.2376 25.8967C32.5287 23.0403 28.337 27.006 31.0335 29.8757C33.7312 32.4531 37.672 28.7226 35.2376 25.8967ZM33.0822 28.5675C32.109 28.5506 32.109 27.1038 33.0822 27.087C34.0553 27.1038 34.0553 28.5506 33.0822 28.5675Z" fill="#434A53"/>
<path d="M33.0826 31.9133C32.5291 31.911 32.0037 31.8053 31.502 31.5938V34.3241C31.502 34.5019 31.6021 34.6616 31.7686 34.7381C31.9249 34.8124 32.1162 34.7865 32.2478 34.6729L33.0826 33.9743L33.924 34.6729C34.0602 34.7854 34.2435 34.809 34.4033 34.7381C34.563 34.6616 34.6643 34.5008 34.6643 34.3241V31.5938C34.1648 31.8053 33.6383 31.911 33.0826 31.9133Z" fill="#434A53"/>
<path d="M28.9962 27.8272C28.9557 25.1868 31.6219 23.1449 34.1542 23.8885C34.5806 24.001 34.9777 24.1843 35.3388 24.4217V16.7707C35.3388 15.7931 34.5457 15 33.5681 15H13.7707C12.7931 15 12 15.7931 12 16.7707V28.5966C12 29.5742 12.7931 30.3673 13.7707 30.3673H29.8838C29.3168 29.6529 28.9984 28.7631 28.995 27.8271L28.9962 27.8272ZM26.8047 19.0567C26.8047 19.383 26.5381 19.6485 26.213 19.6485H20.9424C20.6161 19.6485 20.3506 19.3818 20.3506 19.0567C20.3506 18.7305 20.6172 18.465 20.9424 18.465H26.213C26.5392 18.465 26.8047 18.7316 26.8047 19.0567ZM16.1106 26.3163C16.1106 25.9901 16.3772 25.7246 16.7023 25.7246H27.6168C27.943 25.7246 28.2085 25.9912 28.2085 26.3163C28.2085 26.6426 27.9419 26.9081 27.6168 26.9081L16.7023 26.9092C16.3761 26.9092 16.1106 26.6426 16.1106 26.3174V26.3163ZM30.453 23.2788H16.7024C15.9284 23.2653 15.9206 22.1054 16.7024 22.0942H30.453C31.2259 22.1032 31.2349 23.263 30.453 23.2788Z" fill="#434A53"/>
</svg>
