<svg width="24" height="24" viewBox="0 0 24 24" fill="none" xmlns="http://www.w3.org/2000/svg">
<path fill-rule="evenodd" clip-rule="evenodd" d="M8.31 10.29L7.05 11.55L11.1 15.6L20.1 6.6L18.84 5.34L11.1 13.08L8.31 10.29ZM20.1 12C19.6029 12 19.2059 12.405 19.1439 12.8981C18.6983 16.4384 15.656 19.2 12 19.2C8.04 19.2 4.8 15.96 4.8 12C4.8 8.04 8.04 4.8 12 4.8C12.5198 4.8 12.9928 4.84692 13.4527 4.94075C13.7811 5.00776 14.127 4.923 14.364 4.68599C14.8492 4.20083 14.6524 3.37579 13.9821 3.22941C13.3325 3.08755 12.6662 3 12 3C7.05 3 3 7.05 3 12C3 16.95 7.05 21 12 21C16.6468 21 20.5005 17.4309 20.9551 12.8987C21.0048 12.4041 20.5971 12 20.1 12Z" fill="#7AA89A"/>
</svg>
