<svg width="16" height="10" viewBox="0 0 16 10" fill="none" xmlns="http://www.w3.org/2000/svg">
<path d="M8.66543 9.01145L8.66419 9.0127C8.48393 9.19342 8.24449 9.29988 7.989 9.29988C7.7335 9.29988 7.49406 9.19342 7.3138 9.0127L7.31257 9.01145L1.00182 2.60978L1.00166 2.60994L0.993833 2.60136C0.812347 2.40243 0.710818 2.13852 0.70082 1.86663C0.690821 1.59475 0.772618 1.32369 0.937228 1.11022C1.1026 0.895771 1.34252 0.75258 1.61206 0.726202C1.88232 0.699754 2.14454 0.794596 2.34406 0.977989L2.34947 0.982965L2.35463 0.988201L7.989 6.70117L13.6234 0.988201L13.6234 0.988198L13.6246 0.986975C13.8213 0.789746 14.0877 0.682013 14.3661 0.702298C14.644 0.722539 14.8928 0.86713 15.063 1.08746L15.0634 1.0879C15.2324 1.30745 15.3137 1.58755 15.2981 1.86667C15.2825 2.14555 15.1705 2.41393 14.9759 2.61011C14.9757 2.61029 14.9755 2.61047 14.9753 2.61065L8.66543 9.01145Z" fill="#434A53" stroke="#434A53" stroke-width="0.6"/>
</svg>
