<svg width="16" height="14" viewBox="0 0 16 14" fill="none" xmlns="http://www.w3.org/2000/svg">
<path d="M15.8227 7.10558C15.7483 7.19761 15.6553 7.27184 15.5502 7.32311C15.4451 7.37438 15.3305 7.40146 15.2142 7.40247C15.0271 7.40284 14.8458 7.33574 14.7018 7.21279L14.4135 6.99012V12.3506C14.4135 12.7881 14.2448 13.2076 13.9445 13.5169C13.6442 13.8262 13.2368 14 12.8121 14H10.41C10.1977 14 9.99402 13.9131 9.84386 13.7585C9.6937 13.6038 9.60934 13.394 9.60934 13.1753V9.87654C9.60934 9.65782 9.52498 9.44806 9.37482 9.2934C9.22466 9.13874 9.021 9.05185 8.80864 9.05185H7.20725C6.9949 9.05185 6.79124 9.13874 6.64108 9.2934C6.49092 9.44806 6.40656 9.65782 6.40656 9.87654V13.1753C6.40656 13.394 6.3222 13.6038 6.17204 13.7585C6.02188 13.9131 5.81822 14 5.60587 14H3.20378C2.77907 14 2.37175 13.8262 2.07143 13.5169C1.77111 13.2076 1.60239 12.7881 1.60239 12.3506V6.99012L1.31414 7.23753C1.15063 7.37751 0.939819 7.44486 0.728094 7.42475C0.516369 7.40465 0.321071 7.29874 0.185162 7.13032C0.0492535 6.9619 -0.0161326 6.74478 0.00338815 6.52671C0.0229089 6.30864 0.125737 6.10749 0.289252 5.96751L6.51065 0.574023C6.92666 0.20375 7.45813 0 8.00795 0C8.55777 0 9.08924 0.20375 9.50525 0.574023L15.7266 5.96751C15.8822 6.10774 15.9791 6.30451 15.997 6.51663C16.0149 6.72876 15.9525 6.9398 15.8227 7.10558Z" fill="#434A53"/>
</svg>
