<svg width="48" height="48" viewBox="0 0 48 48" fill="none" xmlns="http://www.w3.org/2000/svg">
<circle cx="24" cy="24" r="24" fill="#F9FAFB"/>
<path d="M23.9912 22.0267C26.6604 22.0267 28.8242 19.7821 28.8242 17.0133C28.8242 14.2445 26.6604 12 23.9912 12C21.322 12 19.1582 14.2445 19.1582 17.0133C19.1582 19.7821 21.322 22.0267 23.9912 22.0267Z" fill="#434A53"/>
<path d="M15.7138 25.12L13.1431 32.6667C12.5775 34.2933 13.7601 36 15.4311 36H17.3334V27.84C17.3334 27.4933 17.6162 27.2 17.9504 27.2H30.0587C30.3928 27.2 30.6756 27.4933 30.6756 27.84V36H32.578C34.249 36 35.4058 34.2933 34.866 32.64L32.2952 25.0933C31.961 24.08 31.0355 23.4133 30.0072 23.4133H26.4082L23.9917 25.9467L21.5752 23.44H18.0018C16.9735 23.44 16.048 24.1067 15.7138 25.12Z" fill="#434A53"/>
<path d="M22.474 30.6666C21.9598 30.6666 21.5742 31.0933 21.5742 31.6C21.5742 32.1333 21.9855 32.5333 22.474 32.5333H25.5075C26.0216 32.5333 26.4072 32.1066 26.4072 31.6C26.4072 31.0666 25.9959 30.6666 25.5075 30.6666H22.474Z" fill="#434A53"/>
</svg>
