<svg width="48" height="48" viewBox="0 0 48 48" fill="none" xmlns="http://www.w3.org/2000/svg">
<circle cx="24" cy="24" r="24" transform="matrix(-1 0 0 1 48 0)" fill="#EFF2F5" fill-opacity="0.5"/>
<path d="M19.8888 23.2179L19.8888 23.2179L19.8873 23.2197C19.6947 23.4389 19.5885 23.7208 19.5885 24.0126C19.5885 24.3044 19.6947 24.5862 19.8873 24.8055L19.8888 24.8072L26.2997 32.0195L26.3049 32.0253L26.3102 32.0308C26.5246 32.2541 26.817 32.386 27.1263 32.3989C27.4355 32.4119 27.7379 32.305 27.9703 32.1005C28.2027 31.896 28.3472 31.6097 28.3736 31.3013C28.4001 30.9929 28.3064 30.6861 28.1123 30.445L28.1062 30.4375L28.0998 30.4303L22.3977 24.0126L28.0998 17.5949L28.0998 17.5949L28.1013 17.5932C28.3113 17.3541 28.4178 17.0414 28.3976 16.7238C28.3773 16.4063 28.2318 16.1097 27.9931 15.8992L27.9926 15.8987C27.7535 15.6887 27.4408 15.5822 27.1233 15.6024C26.806 15.6227 26.5097 15.7679 26.2992 16.0062C26.299 16.0064 26.2988 16.0066 26.2987 16.0069L19.8888 23.2179Z" fill="#242424" stroke="#242424" stroke-width="0.8"/>
</svg>
