<svg width="48" height="48" viewBox="0 0 48 48" fill="none" xmlns="http://www.w3.org/2000/svg">
<circle cx="24" cy="24" r="24" fill="#F9FAFB"/>
<path d="M31.7592 25.8908C32.203 25.8908 32.5623 26.2479 32.5623 26.6866C32.5623 27.1265 32.203 27.4836 31.7592 27.4836H29.7495C29.3068 27.4825 28.9464 27.1265 28.9464 26.6866C28.9464 26.2468 29.3056 25.8908 29.7484 25.8908H31.7592ZM12.43 13H12.4207C12.3083 13 12.2017 13.0437 12.1229 13.1218C12.044 13.1999 12 13.3067 12 13.418V14.184C12 14.2954 12.044 14.4011 12.1229 14.4803C12.2017 14.5584 12.3094 14.602 12.4219 14.602L12.4833 14.6032C12.4474 14.749 12.4277 14.9018 12.4242 15.0591V27.6271C12.4277 27.7844 12.4474 27.9371 12.4833 28.0841L12.4195 28.0853C12.3083 28.0853 12.2017 28.1289 12.1229 28.207C12.044 28.2851 12 28.3919 12 28.5021V29.2693C12 29.3807 12.044 29.4863 12.1229 29.5644C12.2017 29.6436 12.3094 29.6873 12.4219 29.6873H35.5781C35.8111 29.6873 36 29.5001 36 29.2693V28.5033C36 28.2725 35.8111 28.0853 35.5781 28.0853H35.5155C35.5515 27.9383 35.5723 27.7844 35.5746 27.6271V15.0591C35.5723 14.9018 35.5515 14.749 35.5155 14.602L35.5781 14.6032C35.8111 14.602 36 14.4148 36 14.184V13.418C36 13.1872 35.8111 13 35.5781 13L12.43 13ZM21.1558 30.1501H21.1454C20.7015 30.1489 20.3434 30.5049 20.3434 30.9448C20.3434 31.3846 20.7027 31.7417 21.1465 31.7417H21.5255L19.7396 34.8057C19.5182 35.1858 19.6503 35.6727 20.0339 35.8932C20.1603 35.9655 20.2993 36 20.4349 36C20.7131 36 20.9832 35.8565 21.1315 35.6015L23.3811 31.7417H24.6223L26.8672 35.5944C27.0156 35.8505 27.2868 35.9929 27.5638 35.9929C27.7006 35.9929 27.8385 35.9585 27.9648 35.8861C28.3496 35.6668 28.4806 35.1799 28.2592 34.7986L26.4778 31.7417H26.8522C27.2961 31.7417 27.6565 31.3858 27.6565 30.9459C27.6565 30.5061 27.2961 30.1489 26.8522 30.1489L21.1558 30.1501Z" fill="#434A53"/>
</svg>
