<?xml version="1.0" encoding="utf-8"?>
<!-- Generator: Adobe Illustrator 24.2.0, SVG Export Plug-In . SVG Version: 6.00 Build 0)  -->
<svg version="1.1" id="Layer_1" xmlns="http://www.w3.org/2000/svg" xmlns:xlink="http://www.w3.org/1999/xlink" x="0px" y="0px"
	 viewBox="0 0 334.06 134.79" style="enable-background:new 0 0 334.06 134.79;" xml:space="preserve">
<style type="text/css">
	.st0{clip-path:url(#SVGID_2_);fill:#FDB928;}
	.st1{display:none;clip-path:url(#SVGID_2_);fill:#FDB928;}
	.st2{clip-path:url(#SVGID_2_);}
</style>
<g>
	<defs>
		<rect id="SVGID_1_" y="-3.72" width="334.06" height="139.28"/>
	</defs>
	<clipPath id="SVGID_2_">
		<use xlink:href="#SVGID_1_"  style="overflow:visible;"/>
	</clipPath>
	<path class="st0" d="M89.86,0L89.86,0C65.04,0,44.93,20.12,44.93,44.93V0H0v44.93h44.93C20.11,44.93,0,65.04,0,89.86v44.93h44.93
		V89.86c0,24.81,20.11,44.93,44.93,44.93h44.93V89.86H89.86c24.81,0,44.93-20.11,44.93-44.93S114.67,0,89.86,0 M89.86,89.86H44.93
		V44.93h44.93V89.86z"/>
	<polygon class="st1" points="132.58,-2.63 128.6,-2.63 128.6,-3.72 137.81,-3.72 137.81,-2.63 133.82,-2.63 133.82,8.33 
		132.58,8.33 	"/>
	<path class="st1" d="M150.06,2.97c0-2.3,0.02-4.57,0.07-5.8h-0.06c-0.5,1.77-2.72,7.36-4.18,11.16h-1.15
		c-1.1-3.01-3.4-9.25-3.95-11.18h-0.04c0.09,1.38,0.13,4.13,0.13,6.19v4.98h-1.19V-3.72h1.84c1.52,3.95,3.42,9.1,3.85,10.53h0.03
		c0.28-1,2.49-6.69,4.06-10.53h1.8V8.33h-1.21V2.97z"/>
	<path class="st2" d="M142.63,96.15l6.87-25.64h14.15l-6.87,25.64H142.63z M149.96,68.71l1.23-4.72h14.21l-1.23,4.72H149.96z"/>
	<path class="st2" d="M176.83,96.81c-5.51,0-9.34-1.27-11.51-3.82c-2.17-2.55-2.76-5.96-1.77-10.23c0.65-2.77,1.85-5.11,3.62-7.03
		c1.76-1.91,3.96-3.38,6.59-4.38c2.63-1.01,5.61-1.51,8.92-1.51c4.55,0,7.76,1.1,9.64,3.31c1.88,2.21,2.33,5.74,1.33,10.59
		l5.03-18.72h14.15l-8.36,31.13h-14.15l3.13-11.59c-0.92,2.74-2.07,5.02-3.43,6.85c-1.37,1.83-3.11,3.19-5.23,4.08
		C182.66,96.37,180.01,96.81,176.83,96.81 M177.5,84.04c-0.31,1.3,0.02,2.37,1,3.21c0.97,0.84,2.83,1.26,5.56,1.26
		c2.5,0,4.45-0.33,5.85-1c1.4-0.67,2.58-1.67,3.54-3l0.21-0.77c-0.31-1.33-1.13-2.34-2.46-3.02c-1.33-0.68-3.06-1.01-5.18-0.98
		C180.98,79.77,178.14,81.21,177.5,84.04"/>
	<path class="st2" d="M228.88,96.92c-7.56,0-12.74-1.08-15.57-3.26c-2.82-2.17-3.65-5.43-2.49-9.77c1.26-4.68,3.96-8.21,8.1-10.59
		c4.14-2.38,9.4-3.56,15.79-3.56c4.72,0,8.33,0.53,10.85,1.59c2.51,1.06,4.05,2.74,4.61,5.05c0.57,2.31,0.25,5.29-0.95,8.95h-24.51
		c0.07,0.99,0.78,1.69,2.13,2.1c1.35,0.41,3.7,0.62,7.05,0.62c2.36,0,4.69-0.08,7-0.23c2.31-0.15,4.78-0.44,7.41-0.85l-2.15,8.1
		c-1.88,0.48-3.7,0.85-5.46,1.13c-1.76,0.27-3.59,0.46-5.49,0.56C233.31,96.86,231.2,96.92,228.88,96.92 M232.57,79.07
		c-3.9,0-6.34,1.27-7.33,3.79h11.9C237.75,80.34,236.23,79.07,232.57,79.07"/>
	<path class="st2" d="M261.24,96.92c-4.1,0-7.03-0.69-8.77-2.08c-1.74-1.38-2.32-3.31-1.74-5.77c0.58-2.32,2.14-4.09,4.67-5.31
		c2.53-1.21,5.86-1.82,10-1.82c3.66,0,6.35,0.61,8.08,1.82c1.73,1.21,2.4,3.08,2.03,5.61l1.08-4c0.38-1.3,0.41-2.39,0.1-3.28
		c-0.31-0.89-1.13-1.55-2.46-1.97c-1.33-0.43-3.4-0.64-6.2-0.64c-2.67,0-5.16,0.18-7.49,0.54c-2.32,0.36-4.65,0.88-6.97,1.56
		l2.67-9.95c2.84-0.68,5.73-1.17,8.67-1.46c2.94-0.29,6.1-0.44,9.49-0.44c4.03,0,7.32,0.27,9.85,0.82c2.53,0.55,4.41,1.38,5.64,2.51
		c1.23,1.13,1.93,2.55,2.1,4.26c0.17,1.71-0.05,3.73-0.67,6.05l-3.44,12.77H273.7l1.59-5.95c-0.68,1.64-1.61,2.96-2.77,3.95
		c-1.16,0.99-2.66,1.7-4.49,2.13C266.2,96.7,263.94,96.92,261.24,96.92 M264.06,89.58c-0.1,0.55,0.15,0.97,0.77,1.26
		c0.61,0.29,2.01,0.44,4.2,0.44c2.02,0,3.46-0.08,4.33-0.26c0.87-0.17,1.51-0.44,1.92-0.82l0.21-0.77c-0.27-0.44-0.79-0.8-1.54-1.08
		c-0.75-0.27-2.22-0.41-4.41-0.41c-2.09,0-3.49,0.14-4.23,0.41C264.58,88.63,264.16,89.04,264.06,89.58"/>
	<path class="st2" d="M142.52,134.79l6.87-25.64h13.64l-3.08,13.43c0.96-2.77,1.94-5.05,2.95-6.85c1.01-1.79,2.16-3.2,3.46-4.21
		c1.3-1.01,2.87-1.72,4.72-2.13c1.85-0.41,4.12-0.62,6.82-0.62l-3.59,13.44c-1.91-0.1-3.8-0.12-5.67-0.05
		c-1.86,0.07-3.57,0.19-5.13,0.36c-1.56,0.17-2.79,0.41-3.72,0.72l-3.13,11.54H142.52z"/>
	<path class="st2" d="M194.01,135.56c-7.32,0-12.4-1.21-15.26-3.61c-2.85-2.41-3.72-5.7-2.59-9.87c1.16-4.38,3.76-7.74,7.79-10.08
		c4.03-2.34,9.73-3.51,17.08-3.51s12.44,1.21,15.28,3.62c2.84,2.41,3.68,5.8,2.51,10.18c-1.13,4.17-3.72,7.43-7.77,9.77
		C207.01,134.39,201.32,135.56,194.01,135.56 M196.21,127c2.29,0,4.16-0.39,5.61-1.18c1.45-0.79,2.39-1.95,2.79-3.49
		c0.41-1.57,0.09-2.77-0.95-3.59c-1.04-0.82-2.69-1.23-4.95-1.23c-2.26,0-4.13,0.41-5.62,1.23c-1.49,0.82-2.44,2.02-2.85,3.59
		c-0.41,1.54-0.1,2.7,0.95,3.49C192.26,126.61,193.92,127,196.21,127"/>
	<path class="st2" d="M239.29,135.56c-7.32,0-12.4-1.21-15.26-3.61c-2.85-2.41-3.72-5.7-2.59-9.87c1.16-4.38,3.76-7.74,7.79-10.08
		c4.03-2.34,9.73-3.51,17.08-3.51c7.35,0,12.44,1.21,15.28,3.62c2.84,2.41,3.67,5.8,2.51,10.18c-1.13,4.17-3.72,7.43-7.77,9.77
		C252.29,134.39,246.6,135.56,239.29,135.56 M241.49,127c2.29,0,4.16-0.39,5.61-1.18c1.45-0.79,2.39-1.95,2.79-3.49
		c0.41-1.57,0.09-2.77-0.95-3.59c-1.04-0.82-2.69-1.23-4.95-1.23c-2.26,0-4.13,0.41-5.62,1.23c-1.49,0.82-2.43,2.02-2.85,3.59
		c-0.41,1.54-0.1,2.7,0.95,3.49C237.54,126.61,239.2,127,241.49,127"/>
	<path class="st2" d="M263.85,134.79l6.87-25.64h14.15l-2.77,10.41c1.5-3.73,3.69-6.52,6.56-8.39c2.87-1.86,6.12-2.79,9.74-2.79
		c3.01,0,5.28,0.44,6.82,1.33c1.54,0.89,2.5,2.16,2.87,3.82c0.38,1.66,0.29,3.65-0.26,5.97c1.54-3.73,3.73-6.51,6.59-8.36
		c2.85-1.84,6.09-2.77,9.72-2.77c3.14,0,5.49,0.49,7.03,1.46c1.54,0.97,2.45,2.37,2.74,4.18c0.29,1.81,0.09,3.98-0.59,6.51
		l-3.85,14.26h-14.15l3.03-11.23c0.44-1.67,0.26-2.85-0.57-3.51c-0.82-0.67-2.33-1-4.51-1c-1.1,0-2.1,0.07-3.03,0.21
		c-0.92,0.14-1.74,0.31-2.46,0.51c-0.03,0.14-0.07,0.26-0.1,0.38c-0.04,0.12-0.07,0.25-0.1,0.38l-3.85,14.26H289.6l3.03-11.23
		c0.44-1.67,0.26-2.85-0.56-3.51c-0.82-0.67-2.33-1-4.51-1c-1.09,0-2.1,0.07-3.02,0.21c-0.92,0.14-1.74,0.31-2.46,0.51l-4.05,15.03
		H263.85z"/>
</g>
</svg>
