<svg width="48" height="48" viewBox="0 0 48 48" fill="none" xmlns="http://www.w3.org/2000/svg">
<circle cx="24" cy="24" r="24" fill="white"/>
<path d="M24 28.25C23.3543 28.25 22.7086 28.0382 22.1578 27.609L14 21.2656V30.125C14 31.1602 14.8395 32 15.875 32H32.125C33.1605 32 34 31.1605 34 30.125V21.2656L25.8438 27.6133C25.293 28.0391 24.6445 28.25 24 28.25ZM14.6363 20.1758L22.9254 26.625C23.5578 27.1172 24.4437 27.1172 25.0762 26.625L33.3652 20.1758C33.7305 19.8633 34 19.3828 34 18.875C34 17.8395 33.1602 17 32.125 17H15.875C14.8395 17 14 17.8395 14 18.875C14 19.3828 14.2348 19.8633 14.6363 20.1758Z" fill="#8471D9"/>
</svg>
