<svg width="48" height="48" viewBox="0 0 48 48" fill="none" xmlns="http://www.w3.org/2000/svg">
<circle cx="24" cy="24" r="24" fill="white"/>
<path d="M33.9706 29.1188L33.0624 33.0567C32.9348 33.6134 32.4455 34.0029 31.8724 34.0029C22.0164 34.0021 14 25.9857 14 16.1293C14 15.5566 14.3895 15.0667 14.9462 14.9398L18.8841 14.0315C19.4575 13.8986 20.0435 14.1963 20.2818 14.7394L22.0992 18.978C22.3116 19.4773 22.1684 20.059 21.7484 20.402L19.6451 22.0908C20.9725 24.795 23.1712 26.9936 25.8761 28.3219L27.5982 26.2201C27.9376 25.799 28.5236 25.6533 29.0229 25.8695L33.2616 27.6865C33.7714 27.9547 34.1035 28.5485 33.9706 29.1188Z" fill="#8471D9"/>
</svg>
