<svg width="63" height="63" viewBox="0 0 63 63" fill="none" xmlns="http://www.w3.org/2000/svg">
<rect x="11.2363" y="11.2366" width="40.1306" height="40.1306" rx="20.0653" fill="white"/>
<path d="M31.3516 0C14.0642 0 0 14.0642 0 31.3516C0 48.639 14.0642 62.7032 31.3516 62.7032C48.639 62.7032 62.7032 48.639 62.7032 31.3516C62.7032 14.0642 48.639 0 31.3516 0ZM44.3443 34.1294L26.361 45.4912C25.828 45.8298 25.2135 45.9991 24.6053 45.9991C24.0597 45.9991 23.5142 45.8611 23.0188 45.5915C21.9716 45.0146 21.3195 43.911 21.3195 42.7134V19.9955C21.3195 18.7979 21.9716 17.6943 23.0188 17.1175C24.066 16.5406 25.3451 16.5782 26.361 17.2178L44.3443 28.5731C45.3036 29.1813 45.8742 30.216 45.8742 31.3509C45.8742 32.4858 45.3036 33.5275 44.3443 34.1294Z" fill="#8471D9"/>
</svg>
