<svg width="48" height="48" viewBox="0 0 48 48" fill="none" xmlns="http://www.w3.org/2000/svg">
<circle cx="24" cy="24" r="24" fill="#EFF2F5" fill-opacity="0.5"/>
<path d="M28.1112 23.2179L28.1112 23.2179L28.1127 23.2197C28.3053 23.4389 28.4115 23.7208 28.4115 24.0126C28.4115 24.3044 28.3053 24.5862 28.1127 24.8055L28.1112 24.8072L21.7003 32.0195L21.6951 32.0253L21.6898 32.0308C21.4754 32.2541 21.183 32.386 20.8737 32.3989C20.5645 32.4119 20.2621 32.305 20.0297 32.1005C19.7973 31.896 19.6528 31.6097 19.6264 31.3013C19.5999 30.9929 19.6936 30.6861 19.8877 30.445L19.8938 30.4375L19.9002 30.4303L25.6023 24.0126L19.9002 17.5949L19.9002 17.5949L19.8987 17.5932C19.6887 17.3541 19.5822 17.0414 19.6024 16.7238C19.6227 16.4063 19.7682 16.1097 20.0069 15.8992L20.0074 15.8987C20.2465 15.6887 20.5592 15.5822 20.8767 15.6024C21.194 15.6227 21.4903 15.7679 21.7008 16.0062C21.701 16.0064 21.7012 16.0066 21.7013 16.0069L28.1112 23.2179Z" fill="#242424" stroke="#242424" stroke-width="0.8"/>
</svg>
