<svg width="5" height="9" viewBox="0 0 5 9" fill="none" xmlns="http://www.w3.org/2000/svg">
<path d="M4.067 4.3247L4.067 4.3247L4.06777 4.32557C4.15327 4.4229 4.20043 4.54802 4.20043 4.67757C4.20043 4.80712 4.15327 4.93225 4.06777 5.02957L4.06777 5.02958L4.067 5.03045L1.40034 8.03045L1.40045 8.03055L1.3951 8.03612C1.2999 8.13523 1.17012 8.19377 1.03282 8.19953C0.895513 8.20529 0.761285 8.15783 0.658119 8.06705C0.554954 7.97626 0.490813 7.84916 0.479071 7.71223C0.46733 7.57531 0.508894 7.43914 0.595096 7.33212L0.594914 7.33197L0.601344 7.32473L2.95331 4.67757L0.601344 2.03041L0.601342 2.03042L0.600587 2.02956C0.50736 1.92341 0.460054 1.78462 0.469053 1.64363C0.478052 1.50264 0.542621 1.37099 0.648587 1.27756L0.648872 1.27731C0.755017 1.18408 0.893815 1.13677 1.0348 1.14577L1.02206 1.34536L1.0348 1.14577C1.17564 1.15476 1.30716 1.2192 1.40057 1.32497C1.40067 1.32508 1.40077 1.32519 1.40087 1.32531L4.067 4.3247Z" fill="#434A53" stroke="#434A53" stroke-width="0.4"/>
</svg>
