<svg width="24" height="24" viewBox="0 0 24 24" fill="none" xmlns="http://www.w3.org/2000/svg">
<path d="M18.7932 6.98113C18.7932 6.98113 19.1105 7.30028 19.3341 6.98175L19.761 6.37007C19.9101 6.1549 19.7175 6.00613 19.6977 5.99141L17.1091 4.18269H17.1085C16.9491 4.07181 16.8432 4.13915 16.7878 4.20148L16.7415 4.26819L16.3471 4.83258C16.3453 4.83477 16.1248 5.18305 16.4774 5.36721V5.36752C16.9817 5.61557 17.9066 6.13862 18.7926 6.983L18.7932 6.98113Z" fill="#67717D"/>
<path d="M14.4363 2H10.3572C10.0406 2 9.78125 2.25432 9.78125 2.57597V3.05141C9.78125 3.37275 10.0406 3.63208 10.3572 3.63208H10.5589V3.96783C10.5592 4.45048 10.864 4.49056 11.0168 4.48023C11.0428 4.47647 11.0698 4.4724 11.0983 4.46864L11.1023 4.4677H11.102C11.6451 4.39347 12.5443 4.32238 13.5757 4.45361L13.5763 4.45267C13.5763 4.45267 14.2368 4.57513 14.235 3.96752V3.63177H14.4367C14.7536 3.63177 15.0126 3.37275 15.0126 3.0511V2.57597C15.0123 2.25463 14.753 2 14.4363 2Z" fill="#67717D"/>
<path d="M12.3975 5.2041C7.75965 5.2041 4 8.96407 4 13.6026C4 18.2401 7.75965 22.0001 12.3975 22.0001C17.0357 22.0001 20.795 18.2398 20.795 13.6026C20.795 8.96407 17.0357 5.2041 12.3975 5.2041ZM12.9353 13.6C12.442 13.6007 12.4 13.2574 12.3975 13.1584V7.35077C12.4119 7.14876 12.5168 6.76822 13.1016 6.86657C13.1132 6.86813 13.1241 6.86939 13.1364 6.87095C13.1739 6.87722 13.2093 6.88223 13.2366 6.88442C14.9404 7.1237 18.6778 8.2318 19.1448 13.2558C19.1316 13.3955 19.0524 13.5991 18.7025 13.6013C15.6952 13.5928 13.7925 13.5966 12.9353 13.6Z" fill="#67717D"/>
</svg>
