<svg width="48" height="48" viewBox="0 0 48 48" fill="none" xmlns="http://www.w3.org/2000/svg">
<circle cx="24" cy="24" r="24" fill="#F9FAFB"/>
<path d="M24.6177 16.7023C24.6177 18.7465 22.9606 21.6379 20.9163 21.6379C18.872 21.6379 17.2148 18.7466 17.2148 16.7023C17.2148 14.6581 18.872 13.0009 20.9163 13.0009C22.9606 13.0009 24.6177 14.658 24.6177 16.7023Z" fill="#434A53"/>
<path d="M27.3648 33.9781H14.4699C12.7857 33.9781 11.5955 32.3277 12.1287 30.7302L14.1853 24.5606C14.5216 23.5526 15.4644 22.873 16.5264 22.873H25.3083C26.3703 22.873 27.3131 23.5526 27.6495 24.5606L29.706 30.7302C30.2381 32.3278 29.0489 33.9781 27.3648 33.9781Z" fill="#434A53"/>
<path d="M30.7875 16.7024C30.7875 18.751 29.1338 21.6379 27.0861 21.6379C26.1973 21.6379 25.3828 21.1069 24.7539 20.3172C25.457 19.1573 25.8519 17.8117 25.8519 16.7012C25.8519 15.6032 25.4818 14.5783 24.8653 13.7526C25.4818 13.2835 26.2468 13 27.0861 13C29.1347 13 30.7875 14.6538 30.7875 16.7014L30.7875 16.7024Z" fill="#434A53"/>
<path d="M33.5394 33.9781H30.1092C30.2082 33.879 30.2937 33.78 30.368 33.6698C31.0711 32.6944 31.2567 31.4861 30.8742 30.3387L28.8132 24.1691C28.6523 23.6752 28.3936 23.2432 28.0605 22.873H31.4783C32.5392 22.873 33.4775 23.5514 33.8228 24.564L35.8715 30.7336C36.4025 32.3255 35.2179 33.9794 33.5393 33.9794L33.5394 33.9781Z" fill="#434A53"/>
</svg>
