<svg width="24" height="24" viewBox="0 0 24 24" fill="none" xmlns="http://www.w3.org/2000/svg">
<path d="M12.0007 13.8C14.482 13.8 16.4936 11.3823 16.4936 8.4C16.4936 5.41766 14.482 3 12.0007 3C9.51934 3 7.50781 5.41766 7.50781 8.4C7.50781 11.3823 9.51934 13.8 12.0007 13.8Z" fill="#67717D"/>
<path d="M20.806 18.3901C19.9973 16.7701 18.4698 15.4201 16.4929 14.6101C15.9537 14.4301 15.3247 14.4301 14.8754 14.7001C13.9769 15.2401 13.0783 15.5101 12 15.5101C10.9217 15.5101 10.0231 15.2401 9.12456 14.7001C8.67527 14.5201 8.04626 14.4301 7.50712 14.7001C5.53025 15.5101 4.00267 16.8601 3.19395 18.4801C2.56495 19.6501 3.55338 21.0001 4.90125 21.0001H19.0988C20.4466 21.0001 21.4351 19.6501 20.806 18.3901Z" fill="#67717D"/>
</svg>
