<svg width="32" height="32" viewBox="0 0 32 32" fill="none" xmlns="http://www.w3.org/2000/svg">
<circle cx="16" cy="16" r="12" fill="#8471D9"/>
<path fill-rule="evenodd" clip-rule="evenodd" d="M16 2.15887e-07C7.16345 9.66558e-08 -9.66558e-08 7.16345 -2.15887e-07 16C-3.35117e-07 24.8365 7.16345 32 16 32C24.8365 32 32 24.8365 32 16C32 7.16345 24.8365 3.35117e-07 16 2.15887e-07ZM21.3921 12.6649C21.9601 12.0968 21.9601 11.1759 21.3921 10.6078C20.8241 10.0398 19.9031 10.0398 19.3351 10.6078L16 13.943L12.6649 10.6079C12.0968 10.0398 11.1759 10.0398 10.6078 10.6079C10.0398 11.1759 10.0398 12.0969 10.6078 12.6649L13.943 16L10.6079 19.3351C10.0398 19.9031 10.0398 20.8241 10.6079 21.3921C11.1759 21.9601 12.0969 21.9601 12.6649 21.3921L16 18.057L19.3351 21.3921C19.9031 21.9601 20.8241 21.9601 21.3921 21.3921C21.9601 20.8241 21.9601 19.9031 21.3921 19.3351L18.057 16L21.3921 12.6649Z" fill="#F5F3F3"/>
</svg>
