<svg width="24" height="24" viewBox="0 0 24 24" fill="none" xmlns="http://www.w3.org/2000/svg">
<path d="M21.8715 7.53282C21.8715 5.65787 20.5784 4.14958 18.9805 4.14958C16.8162 4.04167 14.6089 4 12.3531 4H11.6499C9.39961 4 7.18839 4.04167 5.02406 4.15C3.43011 4.15 2.13697 5.66662 2.13697 7.54157C2.03931 9.02445 1.99789 10.5077 2.00024 11.991C1.99633 13.4743 2.04061 14.959 2.13307 16.4451C2.13307 18.32 3.4262 19.8408 5.02015 19.8408C7.29387 19.9533 9.6262 20.0033 11.9976 19.9991C14.3729 20.0075 16.6987 19.9547 18.975 19.8408C20.5729 19.8408 21.866 18.32 21.866 16.4451C21.9598 14.9576 22.0028 13.4743 21.9989 11.9869C22.0077 10.5036 21.9653 9.01889 21.8715 7.53282ZM10.0872 16.0784V7.89114L15.752 11.9827L10.0872 16.0784Z" fill="#282525"/>
</svg>
